<svg id="visual" viewBox="0 0 1920 1080" width="1920" height="1080" xmlns="http://www.w3.org/2000/svg" xmlns:xlink="http://www.w3.org/1999/xlink" version="1.1"><rect x="0" y="0" width="1920" height="1080" fill="#13213c"></rect><defs><linearGradient id="grad1_0" x1="43.8%" y1="100%" x2="100%" y2="0%"><stop offset="14.444444444444446%" stop-color="#da6135" stop-opacity="1"></stop><stop offset="85.55555555555554%" stop-color="#da6135" stop-opacity="1"></stop></linearGradient></defs><defs><linearGradient id="grad1_1" x1="43.8%" y1="100%" x2="100%" y2="0%"><stop offset="14.444444444444446%" stop-color="#da6135" stop-opacity="1"></stop><stop offset="85.55555555555554%" stop-color="#bb3e56" stop-opacity="1"></stop></linearGradient></defs><defs><linearGradient id="grad1_2" x1="43.8%" y1="100%" x2="100%" y2="0%"><stop offset="14.444444444444446%" stop-color="#843364" stop-opacity="1"></stop><stop offset="85.55555555555554%" stop-color="#bb3e56" stop-opacity="1"></stop></linearGradient></defs><defs><linearGradient id="grad1_3" x1="43.8%" y1="100%" x2="100%" y2="0%"><stop offset="14.444444444444446%" stop-color="#843364" stop-opacity="1"></stop><stop offset="85.55555555555554%" stop-color="#472e5a" stop-opacity="1"></stop></linearGradient></defs><defs><linearGradient id="grad1_4" x1="43.8%" y1="100%" x2="100%" y2="0%"><stop offset="14.444444444444446%" stop-color="#13213c" stop-opacity="1"></stop><stop offset="85.55555555555554%" stop-color="#472e5a" stop-opacity="1"></stop></linearGradient></defs><defs><linearGradient id="grad2_0" x1="0%" y1="100%" x2="56.3%" y2="0%"><stop offset="14.444444444444446%" stop-color="#da6135" stop-opacity="1"></stop><stop offset="85.55555555555554%" stop-color="#da6135" stop-opacity="1"></stop></linearGradient></defs><defs><linearGradient id="grad2_1" x1="0%" y1="100%" x2="56.3%" y2="0%"><stop offset="14.444444444444446%" stop-color="#bb3e56" stop-opacity="1"></stop><stop offset="85.55555555555554%" stop-color="#da6135" stop-opacity="1"></stop></linearGradient></defs><defs><linearGradient id="grad2_2" x1="0%" y1="100%" x2="56.3%" y2="0%"><stop offset="14.444444444444446%" stop-color="#bb3e56" stop-opacity="1"></stop><stop offset="85.55555555555554%" stop-color="#843364" stop-opacity="1"></stop></linearGradient></defs><defs><linearGradient id="grad2_3" x1="0%" y1="100%" x2="56.3%" y2="0%"><stop offset="14.444444444444446%" stop-color="#472e5a" stop-opacity="1"></stop><stop offset="85.55555555555554%" stop-color="#843364" stop-opacity="1"></stop></linearGradient></defs><defs><linearGradient id="grad2_4" x1="0%" y1="100%" x2="56.3%" y2="0%"><stop offset="14.444444444444446%" stop-color="#472e5a" stop-opacity="1"></stop><stop offset="85.55555555555554%" stop-color="#13213c" stop-opacity="1"></stop></linearGradient></defs><g transform="translate(1920, 1080)"><path d="M-702 0C-596.9 -65.3 -491.9 -130.7 -432.4 -179.1C-372.9 -227.5 -358.9 -259.1 -347.2 -347.2C-335.5 -435.3 -326.1 -580 -268.6 -648.6C-211.2 -717.1 -105.6 -709.6 0 -702L0 0Z" fill="#2b284d"></path><path d="M-561.6 0C-477.6 -52.3 -393.5 -104.5 -345.9 -143.3C-298.3 -182 -287.1 -207.3 -277.8 -277.8C-268.4 -348.2 -260.9 -464 -214.9 -518.9C-168.9 -573.7 -84.5 -567.7 0 -561.6L0 0Z" fill="#653162"></path><path d="M-421.2 0C-358.2 -39.2 -295.1 -78.4 -259.4 -107.5C-223.7 -136.5 -215.3 -155.4 -208.3 -208.3C-201.3 -261.2 -195.7 -348 -161.2 -389.1C-126.7 -430.3 -63.3 -425.7 0 -421.2L0 0Z" fill="#a13660"></path><path d="M-280.8 0C-238.8 -26.1 -196.8 -52.3 -173 -71.6C-149.1 -91 -143.5 -103.6 -138.9 -138.9C-134.2 -174.1 -130.5 -232 -107.5 -259.4C-84.5 -286.9 -42.2 -283.8 0 -280.8L0 0Z" fill="#ce4c47"></path><path d="M-140.4 0C-119.4 -13.1 -98.4 -26.1 -86.5 -35.8C-74.6 -45.5 -71.8 -51.8 -69.4 -69.4C-67.1 -87.1 -65.2 -116 -53.7 -129.7C-42.2 -143.4 -21.1 -141.9 0 -140.4L0 0Z" fill="#da6135"></path></g><g transform="translate(0, 0)"><path d="M702 0C575.6 41 449.2 82 435.1 180.2C421.1 278.5 519.3 434 496.4 496.4C473.5 558.8 329.5 528.2 226.5 546.9C123.6 565.7 61.8 633.8 0 702L0 0Z" fill="#2b284d"></path><path d="M561.6 0C460.5 32.8 359.4 65.6 348.1 144.2C336.9 222.8 415.4 347.2 397.1 397.1C378.8 447 263.6 422.5 181.2 437.5C98.9 452.6 49.5 507.1 0 561.6L0 0Z" fill="#653162"></path><path d="M421.2 0C345.4 24.6 269.5 49.2 261.1 108.1C252.6 167.1 311.6 260.4 297.8 297.8C284.1 335.3 197.7 316.9 135.9 328.2C74.2 339.4 37.1 380.3 0 421.2L0 0Z" fill="#a13660"></path><path d="M280.8 0C230.2 16.4 179.7 32.8 174.1 72.1C168.4 111.4 207.7 173.6 198.6 198.6C189.4 223.5 131.8 211.3 90.6 218.8C49.5 226.3 24.7 253.5 0 280.8L0 0Z" fill="#ce4c47"></path><path d="M140.4 0C115.1 8.2 89.8 16.4 87 36C84.2 55.7 103.9 86.8 99.3 99.3C94.7 111.8 65.9 105.6 45.3 109.4C24.7 113.1 12.4 126.8 0 140.4L0 0Z" fill="#da6135"></path></g></svg>