<svg id="visual" viewBox="0 0 768 992" width="768" height="992" xmlns="http://www.w3.org/2000/svg" xmlns:xlink="http://www.w3.org/1999/xlink" version="1.1"><rect x="0" y="0" width="768" height="992" fill="#001220"></rect><defs><linearGradient id="grad1_0" x1="0%" y1="0%" x2="100%" y2="100%"><stop offset="30%" stop-color="#fbae3c" stop-opacity="1"></stop><stop offset="70%" stop-color="#fbae3c" stop-opacity="1"></stop></linearGradient></defs><defs><linearGradient id="grad1_1" x1="0%" y1="0%" x2="100%" y2="100%"><stop offset="30%" stop-color="#fbae3c" stop-opacity="1"></stop><stop offset="70%" stop-color="#eb7458" stop-opacity="1"></stop></linearGradient></defs><defs><linearGradient id="grad1_2" x1="0%" y1="0%" x2="100%" y2="100%"><stop offset="30%" stop-color="#b84e6c" stop-opacity="1"></stop><stop offset="70%" stop-color="#eb7458" stop-opacity="1"></stop></linearGradient></defs><defs><linearGradient id="grad1_3" x1="0%" y1="0%" x2="100%" y2="100%"><stop offset="30%" stop-color="#b84e6c" stop-opacity="1"></stop><stop offset="70%" stop-color="#713c69" stop-opacity="1"></stop></linearGradient></defs><defs><linearGradient id="grad1_4" x1="0%" y1="0%" x2="100%" y2="100%"><stop offset="30%" stop-color="#2d2b4c" stop-opacity="1"></stop><stop offset="70%" stop-color="#713c69" stop-opacity="1"></stop></linearGradient></defs><defs><linearGradient id="grad1_5" x1="0%" y1="0%" x2="100%" y2="100%"><stop offset="30%" stop-color="#2d2b4c" stop-opacity="1"></stop><stop offset="70%" stop-color="#001220" stop-opacity="1"></stop></linearGradient></defs><defs><linearGradient id="grad2_0" x1="0%" y1="0%" x2="100%" y2="100%"><stop offset="30%" stop-color="#fbae3c" stop-opacity="1"></stop><stop offset="70%" stop-color="#fbae3c" stop-opacity="1"></stop></linearGradient></defs><defs><linearGradient id="grad2_1" x1="0%" y1="0%" x2="100%" y2="100%"><stop offset="30%" stop-color="#eb7458" stop-opacity="1"></stop><stop offset="70%" stop-color="#fbae3c" stop-opacity="1"></stop></linearGradient></defs><defs><linearGradient id="grad2_2" x1="0%" y1="0%" x2="100%" y2="100%"><stop offset="30%" stop-color="#eb7458" stop-opacity="1"></stop><stop offset="70%" stop-color="#b84e6c" stop-opacity="1"></stop></linearGradient></defs><defs><linearGradient id="grad2_3" x1="0%" y1="0%" x2="100%" y2="100%"><stop offset="30%" stop-color="#713c69" stop-opacity="1"></stop><stop offset="70%" stop-color="#b84e6c" stop-opacity="1"></stop></linearGradient></defs><defs><linearGradient id="grad2_4" x1="0%" y1="0%" x2="100%" y2="100%"><stop offset="30%" stop-color="#713c69" stop-opacity="1"></stop><stop offset="70%" stop-color="#2d2b4c" stop-opacity="1"></stop></linearGradient></defs><defs><linearGradient id="grad2_5" x1="0%" y1="0%" x2="100%" y2="100%"><stop offset="30%" stop-color="#001220" stop-opacity="1"></stop><stop offset="70%" stop-color="#2d2b4c" stop-opacity="1"></stop></linearGradient></defs><g transform="translate(768, 0)"><path d="M0 564.5C-74.6 557.9 -149.1 551.3 -216 521.6C-283 491.8 -342.2 438.9 -379.7 379.7C-417.2 320.5 -432.9 254.9 -460.1 190.6C-487.3 126.2 -525.9 63.1 -564.5 0L0 0Z" fill="#131f37"></path><path d="M0 470.5C-62.1 464.9 -124.3 459.4 -180 434.6C-235.8 409.9 -285.2 365.8 -316.4 316.4C-347.7 267.1 -360.8 212.4 -383.4 158.8C-406.1 105.2 -438.3 52.6 -470.5 0L0 0Z" fill="#4d345e"></path><path d="M0 376.4C-49.7 372 -99.4 367.5 -144 347.7C-188.6 327.9 -228.2 292.6 -253.1 253.1C-278.1 213.7 -288.6 169.9 -306.7 127.1C-324.8 84.2 -350.6 42.1 -376.4 0L0 0Z" fill="#96446e"></path><path d="M0 282.3C-37.3 279 -74.6 275.7 -108 260.8C-141.5 245.9 -171.1 219.5 -189.9 189.9C-208.6 160.2 -216.5 127.5 -230 95.3C-243.6 63.1 -263 31.6 -282.3 0L0 0Z" fill="#d55e64"></path><path d="M0 188.2C-24.9 186 -49.7 183.8 -72 173.9C-94.3 163.9 -114.1 146.3 -126.6 126.6C-139.1 106.8 -144.3 85 -153.4 63.5C-162.4 42.1 -175.3 21 -188.2 0L0 0Z" fill="#f88f4a"></path><path d="M0 94.1C-12.4 93 -24.9 91.9 -36 86.9C-47.2 82 -57 73.2 -63.3 63.3C-69.5 53.4 -72.2 42.5 -76.7 31.8C-81.2 21 -87.7 10.5 -94.1 0L0 0Z" fill="#fbae3c"></path></g><g transform="translate(0, 992)"><path d="M0 -564.5C57.2 -522.2 114.3 -479.9 191 -461C267.6 -442.1 363.7 -446.7 399.2 -399.2C434.6 -351.7 409.4 -252 426.8 -176.8C444.3 -101.6 504.4 -50.8 564.5 0L0 0Z" fill="#131f37"></path><path d="M0 -470.5C47.6 -435.2 95.3 -399.9 159.1 -384.2C223 -368.5 303.1 -372.3 332.7 -332.7C362.2 -293.1 341.2 -210 355.7 -147.3C370.2 -84.7 420.3 -42.3 470.5 0L0 0Z" fill="#4d345e"></path><path d="M0 -376.4C38.1 -348.1 76.2 -319.9 127.3 -307.3C178.4 -294.8 242.5 -297.8 266.1 -266.1C289.8 -234.4 272.9 -168 284.6 -117.9C296.2 -67.7 336.3 -33.9 376.4 0L0 0Z" fill="#96446e"></path><path d="M0 -282.3C28.6 -261.1 57.2 -239.9 95.5 -230.5C133.8 -221.1 181.9 -223.4 199.6 -199.6C217.3 -175.8 204.7 -126 213.4 -88.4C222.1 -50.8 252.2 -25.4 282.3 0L0 0Z" fill="#d55e64"></path><path d="M0 -188.2C19.1 -174.1 38.1 -160 63.7 -153.7C89.2 -147.4 121.2 -148.9 133.1 -133.1C144.9 -117.2 136.5 -84 142.3 -58.9C148.1 -33.9 168.1 -16.9 188.2 0L0 0Z" fill="#f88f4a"></path><path d="M0 -94.1C9.5 -87 19.1 -80 31.8 -76.8C44.6 -73.7 60.6 -74.5 66.5 -66.5C72.4 -58.6 68.2 -42 71.1 -29.5C74 -16.9 84.1 -8.5 94.1 0L0 0Z" fill="#fbae3c"></path></g></svg>